<svg xmlns="http://www.w3.org/2000/svg" width="800" height="420" viewBox="0 0 800 420">
  <rect width="800" height="420" fill="#F5F5F0"/>
  <text x="40" y="40" font-family="Inter, sans-serif" font-size="18" font-weight="700" fill="#1B4332">Betrieblicher Impact der KI-Automatisierung</text>
  <text x="40" y="64" font-family="Inter, sans-serif" font-size="13" fill="#5C5F62">Baseline vs. optimierter Zustand nach Systemeinführung</text>
  <g transform="translate(60,100)">
    <text x="0" y="20" font-family="Inter, sans-serif" font-size="13" fill="#5C5F62" font-weight="600">Effizienz</text>
    <rect x="120" y="8" width="180" height="20" fill="#E2E2DC" rx="4"/>
    <rect x="120" y="8" width="120" height="20" fill="#40916C" rx="4"/>
    <text x="320" y="22" font-family="Inter, sans-serif" font-size="12" fill="#5C5F62">Baseline 60%</text>
    <rect x="120" y="38" width="260" height="20" fill="#E2E2DC" rx="4"/>
    <rect x="120" y="38" width="230" height="20" fill="#1B4332" rx="4"/>
    <text x="400" y="52" font-family="Inter, sans-serif" font-size="12" fill="#5C5F62">Optimiert 92%</text>
    <text x="0" y="90" font-family="Inter, sans-serif" font-size="13" fill="#5C5F62" font-weight="600">Kosten</text>
    <rect x="120" y="78" width="240" height="20" fill="#E2E2DC" rx="4"/>
    <rect x="120" y="78" width="200" height="20" fill="#BC8A5F" rx="4"/>
    <text x="380" y="92" font-family="Inter, sans-serif" font-size="12" fill="#5C5F62">Baseline 100%</text>
    <rect x="120" y="108" width="240" height="20" fill="#E2E2DC" rx="4"/>
    <rect x="120" y="108" width="130" height="20" fill="#2D6A4F" rx="4"/>
    <text x="270" y="122" font-family="Inter, sans-serif" font-size="12" fill="#5C5F62">Optimiert -45%</text>
    <text x="0" y="160" font-family="Inter, sans-serif" font-size="13" fill="#5C5F62" font-weight="600">Kundenzufriedenheit</text>
    <rect x="120" y="148" width="200" height="20" fill="#E2E2DC" rx="4"/>
    <rect x="120" y="148" width="150" height="20" fill="#40916C" rx="4"/>
    <text x="340" y="162" font-family="Inter, sans-serif" font-size="12" fill="#5C5F62">Baseline 75%</text>
    <rect x="120" y="178" width="200" height="20" fill="#E2E2DC" rx="4"/>
    <rect x="120" y="178" width="190" height="20" fill="#1B4332" rx="4"/>
    <text x="330" y="192" font-family="Inter, sans-serif" font-size="12" fill="#5C5F62">Optimiert 95%</text>
  </g>
</svg>