<svg xmlns="http://www.w3.org/2000/svg" width="800" height="420" viewBox="0 0 800 420">
  <rect width="800" height="420" fill="#F5F5F0"/>
  <text x="40" y="40" font-family="Inter, sans-serif" font-size="18" font-weight="700" fill="#1B4332">Digitale Sichtbarkeitsanalyse</text>
  <text x="40" y="64" font-family="Inter, sans-serif" font-size="13" fill="#5C5F62">Aktueller Status vs. 12-Monats-Ziel</text>
  <g transform="translate(60,120)">
    <text x="0" y="0" font-family="Inter, sans-serif" font-size="13" fill="#5C5F62" font-weight="600">SEO</text>
    <rect x="100" y="-12" width="300" height="20" fill="#E2E2DC" rx="4"/>
    <rect x="100" y="-12" width="90" height="20" fill="#BC8A5F" rx="4"/>
    <text x="410" y="4" font-family="Inter, sans-serif" font-size="12" fill="#5C5F62">aktuell 30%</text>
    <rect x="100" y="18" width="300" height="20" fill="#E2E2DC" rx="4"/>
    <rect x="100" y="18" width="270" height="20" fill="#1B4332" rx="4"/>
    <text x="380" y="34" font-family="Inter, sans-serif" font-size="12" fill="#5C5F62">Ziel 90%</text>
    <text x="0" y="70" font-family="Inter, sans-serif" font-size="13" fill="#5C5F62" font-weight="600">Social</text>
    <rect x="100" y="58" width="300" height="20" fill="#E2E2DC" rx="4"/>
    <rect x="100" y="58" width="120" height="20" fill="#BC8A5F" rx="4"/>
    <text x="430" y="74" font-family="Inter, sans-serif" font-size="12" fill="#5C5F62">aktuell 40%</text>
    <rect x="100" y="88" width="300" height="20" fill="#E2E2DC" rx="4"/>
    <rect x="100" y="88" width="240" height="20" fill="#1B4332" rx="4"/>
    <text x="350" y="104" font-family="Inter, sans-serif" font-size="12" fill="#5C5F62">Ziel 80%</text>
    <text x="0" y="140" font-family="Inter, sans-serif" font-size="13" fill="#5C5F62" font-weight="600">Paid Ads</text>
    <rect x="100" y="128" width="300" height="20" fill="#E2E2DC" rx="4"/>
    <rect x="100" y="128" width="60" height="20" fill="#BC8A5F" rx="4"/>
    <text x="370" y="144" font-family="Inter, sans-serif" font-size="12" fill="#5C5F62">aktuell 20%</text>
    <rect x="100" y="158" width="300" height="20" fill="#E2E2DC" rx="4"/>
    <rect x="100" y="158" width="210" height="20" fill="#1B4332" rx="4"/>
    <text x="320" y="174" font-family="Inter, sans-serif" font-size="12" fill="#5C5F62">Ziel 70%</text>
  </g>
</svg>