<svg xmlns="http://www.w3.org/2000/svg" width="800" height="420" viewBox="0 0 800 420">
  <rect width="800" height="420" fill="#F5F5F0"/>
  <text x="40" y="40" font-family="Inter, sans-serif" font-size="18" font-weight="700" fill="#1B4332">Globaler Agritech-Markt</text>
  <text x="40" y="64" font-family="Inter, sans-serif" font-size="13" fill="#5C5F62">Historische Entwicklung und Prognose bis 2033</text>
  <line x1="60" y1="340" x2="760" y2="340" stroke="#E2E2DC" stroke-width="2"/>
  <line x1="60" y1="340" x2="60" y2="100" stroke="#E2E2DC" stroke-width="2"/>
  <polyline points="60,300 180,280 300,250 420,200" fill="none" stroke="#1B4332" stroke-width="4"/>
  <polyline points="420,200 540,150 660,110 760,90" fill="none" stroke="#D4A373" stroke-width="4" stroke-dasharray="8,6"/>
  <circle cx="60" cy="300" r="5" fill="#40916C"/><text x="45" y="360" font-size="11" fill="#5C5F62">2020</text>
  <circle cx="180" cy="280" r="5" fill="#40916C"/><text x="165" y="360" font-size="11" fill="#5C5F62">2022</text>
  <circle cx="300" cy="250" r="5" fill="#40916C"/><text x="285" y="360" font-size="11" fill="#5C5F62">2024</text>
  <circle cx="420" cy="200" r="5" fill="#40916C"/><text x="405" y="360" font-size="11" fill="#5C5F62">2026</text>
  <circle cx="540" cy="150" r="5" fill="#D4A373"/><text x="525" y="360" font-size="11" fill="#5C5F62">2028</text>
  <circle cx="660" cy="110" r="5" fill="#D4A373"/><text x="645" y="360" font-size="11" fill="#5C5F62">2030</text>
  <circle cx="760" cy="90" r="5" fill="#D4A373"/><text x="745" y="360" font-size="11" fill="#5C5F62">2033</text>
  <text x="540" y="80" font-family="Inter, sans-serif" font-size="12" fill="#D4A373" font-weight="600">Prognose</text>
</svg>